<?xml version="1.0" encoding="utf-8"?>
<!-- Generator: Adobe Illustrator 28.3.0, SVG Export Plug-In . SVG Version: 6.00 Build 0)  -->
<svg version="1.1" id="Layer_1" xmlns="http://www.w3.org/2000/svg" xmlns:xlink="http://www.w3.org/1999/xlink" x="0px" y="0px"
	 viewBox="0 0 512 512" style="enable-background:new 0 0 512 512;" xml:space="preserve">
<style type="text/css">
	.st0{fill:#FFFFFF;}
</style>
<rect width="512" height="512"/>
<g>
	<g>
		<path class="st0" d="M251,0c11.7,0,23.4,0,35.1,0c-4.4,10.3-4.7,21.4-6.2,32.3c3.6-10.8,7.1-21.5,10.7-32.3c11.5,0,22.9,0,34.4,0
			c-3,13.5-9,25.9-14.7,38.5c0.7-0.4,1.1-0.9,1.6-1.4c3-3.1,5.1-7,7.7-10.5c6.9-9.4,15.3-17.6,22.6-26.7c0.8,0,1.7,0,2.5,0
			c-5.7,7.7-12.9,14.2-18.1,22.3c-0.6,1-0.4,1.5,0.1,2.2c1.6,2.2,4.7,2.2,6.6-0.1c0.5-0.7,0.9-1.5,1.3-2.2c0.3-0.4,0.8-0.8,1.4-0.5
			c0.6,0.2,0.6,0.8,0.4,1.3c-1.2,2.9,1.8,3.4,2.9,5c0.3,0.4,1.4,0.3,1.4-0.1c-0.3-3.9,1.9-2.9,4.1-2.3c0.2,0.1,0.7-0.2,0.8-0.4
			c1.3-2.8,4.8-3.5,6.1-5.7c3-5,9.5-6.7,11.3-12.8c0.9-3,4.2-4.4,6.1-6.8c2.1,0,4.2,0,6.4,0c-2.2,6.5-7.6,11.1-10.8,17
			c-1,1.9-3.7,3.5,0.8,4.1c1,0.1,1.8,2.3,2.9,1c1.1-1.3,3-2.6,2.3-4.9c-0.3-0.9-0.5-1.7,0.6-2.1c1-0.4,1.9,0,2.5,0.9
			c0.6,0.7,0.7,2.4,2.2,1.4c1.3-0.8,1.2-2,0.7-3.4c-1.2-3.2,1.7-7.2,4.9-6.5c3.2,0.8,4-0.8,4.8-3.1c0.5-1.5,1.2-3,1.8-4.4
			c5.1,0,10.2,0,15.3,0c-2.4,7.1-5.2,14-8.9,20.4c-4.6,8.1-9.9,15.9-14.8,23.8c-0.7,1.1-2.3,2.5-1.3,3.6c1,1.1,2.5-0.3,3.6-1
			c10.9-6.2,21.6-12.8,33.6-16.6c9.2-2.9,18.3-6,28.3-5.5c5,0.2,10.1,0.5,15.2-0.5c3.8-0.8,7.8,2.5,7.3,5.9
			c-0.5,3.8-1.1,7.7-2.7,11.1c-6.4,13.4-15.5,24.9-27.3,34c-5.7,4.4-11.7,8.5-16.9,13.5c-2.5,2.4-5.3,4.1-8.2,5.9
			c-6.1,3.8-12.6,6.9-19.1,10c-1.5,0.7-4.5,1.5-3.8,3.4c0.6,1.7,3.2,0.2,4.9,0c0.8-0.1,2-1.1,2.3,0.4c0.2,1.2-0.7,2.8-1.8,2.5
			c-3.2-0.9-4.7,0.9-6.1,3.2c-0.2,0.3-0.8,0.6-1.1,0.5c-2.2-0.5-3.9,0.5-5.7,1.4c-0.8,0.4-1.7,0.8-2.3-0.1c-0.6-0.9-0.1-1.9,0.6-2.6
			c0.5-0.5,1.3-0.6,2-1c1-0.5,1.9-1.4,1.4-2.5c-0.5-1.1-1.6-0.6-2.5-0.4c-3.7,0.9-5.7,3.5-7.2,6.8c-0.6,1.3-1,1.7,0.5,2.2
			c1,0.3,2.4,0.9,2,2.1c-0.6,1.7-2.1,0.4-3,0c-3.2-1.3-6.1-2.2-9.7-0.8c-2,0.8-4.8,1.2-7-0.5c-1-0.7-2-0.2-3,0.2
			c-1.2,0.6-2.5,1.2-3.9,1.2c-2.1,0-3.9,0.7-5.5,2.1c-1.5,1.4-3.3,1.8-5.2,2.2c-3.5,0.7-6.8,1.8-8.8,5.1c-0.4,0.6-0.9,1.2-1.7,1.4
			c-5.5,0.9-9.5,4.6-14,7.3c-1,0.6-1.7,1.2-1.5,2.5c0.4,2.9,5,5.9,7.8,4.8c4.7-1.8,9.4-4.3,14.1-5.7c7.1-2,13.2-5.9,20.1-8.1
			c0.3-0.1,0.8-0.5,0.8-0.8c-0.1-2.9,1.1-3.1,3.3-1.6c0.8,0.6,1.6-0.1,2.4-0.5c1.1-0.7,2.3-1.2,3.6-1.1c2,0.2,3.3-0.8,4.9-1.8
			c2.6-1.5,5-3.9,8.3-3.4c3.8,0.6,6.9-0.9,9.7-3.1c1.5-1.1,3-1.9,4.7-2.5c4.9-1.7,9.3-4.1,10.6-9.8c0.2-0.7,0.6-1.5,1.4-1.5
			c1,0,1.1,0.8,1.2,1.6c0.2,1.6,1.1,2,2.4,1.4c1.2-0.6,2.7-0.7,2.1-2.9c-0.9-3-0.4-3.4,2.9-3c1,0.1,1.9-0.1,2.7-0.7
			c1.5-1.1,3.1-2.3,4.7-3.3c1.9-1.3,4.5-2.1,3-5.4c-0.3-0.6,0.5-1.8,0.9-2.6c0.5-0.9,1.2-1.3,1.9-0.2c0.4,0.6,0.3,2,1.6,1.5
			c1.1-0.4,0.8-1.6,0.9-2.5c0.4-3.3,1.7-6.7,4.2-8.6c11.1-8.6,23.5-14.8,36.7-19.5c5.7-2,14.8-3.5,18.6-2.9
			c-20.9,2.3-37.7,12.1-54.8,23.3c3.3,0.3,3.7,1,1.4,2.2c-0.6,0.3-1.6,0.7-1,1.6c0.5,0.8,1.5,0.5,2,0c3.4-3.3,8.1-4,12.2-5.7
			c6.4-2.6,11.7-7.3,18.5-9.6c6.6-2.3,13.2-4.7,19.9-6.7c3.9-1.2,7.9-2.8,12-5.8c-2.8,0-4.9,0-7,0c2.7-0.8,5.4-1.5,8.1-1.3
			c3.6,0.3,4.5,1.7,3.5,5.1c-1.7,5.4-5,9.9-9,13.7c-9.1,8.7-18.9,16.7-29.3,23.9c-14.5,9.9-29.4,18.7-46.2,23.9
			c-3,0.9-6,2.3-8.9,3.5c-0.6,0.2-1.3,0.6-1.1,1.3c0.1,0.4,0.7,0.8,1.2,0.9c0.7,0.3,1.4,0.4,2.2,0.5c7.5,1.3,14.8,0,22.1-1.3
			c11.2-1.9,22.3-4.4,33.8-3.6c5.2,0.4,10.3,0.1,15.5-0.5c5.4-0.6,11.1-1.1,16,2.3c-3.3-0.6-6.6-1.3-10-1.4
			c-7-0.1-13.9,1.7-20.9,0.6c-0.6-0.1-1.5-0.2-1.6,0.6c-0.3,1.9-1.8,1.9-3.1,2.2c-4,0.9-8.1,1.7-12.1,2.6c-1.2,0.3-3.4,0.2-3.1,2
			c0.4,1.7,2.3,0.7,3.6,0.5c0.4,0,0.8-0.2,1.2-0.3c4.4-1.6,9.4-2.6,13.7-1.7c4.6,0.9,8.4-1.1,12.6-1.3c4.3-0.2,8.5-1.1,12.8-0.6
			c2.6,0.3,5.6-0.1,6.8-3.2c3.3,1.2,3.7,2.3,2.1,5.1c-1.1,2-2.3,4.1-4.4,5.4c-5,3.3-8.7,7.7-10.4,13.6c-0.3,0.9-0.9,1.7-1.5,2.4
			c-3.4,4.7-7.9,8.2-12.4,11.8c-0.9,0.8-2.6,1.1-2.2,2.8c0.3,1.3,1.8,1.3,2.9,1.6c6.5,1.6,12.9,3.5,18.9,6.5c-2.3-0.2-4.3-1-6.4-1.7
			c-5.1-1.6-10.1-3.4-15.4-4.1c-10.5-1.6-21-2.9-31.7-2.7c-0.9,0-2.1,0.3-2.7-0.6c-1.1-1.9-2.7-1.3-4.2-0.9
			c-2.1,0.6-4.2,1.1-6.6,0.3c0.9-1.4,1.7-2.5,1.9-3.9c0.1-0.9,0.9-1.9-0.2-2.6c-0.8-0.5-1.7,0-2.3,0.5c-1,0.7-2,1.1-3.2,1.1
			c-9.7,0.3-19.1,2.6-28.6,4.1c-10.5,1.6-21,2.9-31.6,3.3c-16.9,0.6-33.7,1.9-50.5,2.6c-1.4,0.1-3.8-0.5-4,1c-0.3,1.9,2.3,2,3.6,2.2
			c3,0.5,4.3,4.1,7.3,4.1c6.5,0.2,12.8,1.7,19.3,1.9c3.2,0.1,6.6-0.4,9.7,0.3c2.7,0.6,5.4,1.2,8.1,1.4c4.3,0.3,8.7,1.3,12.5-1.9
			c0.4-0.3,0.7-0.3,1.1,0c4.5,3.2,9.7,2,13.6,0.3c4.6-2.1,9.4-2.2,13.6-2c6.5,0.4,12.9-1.1,19.3-0.6c7.1,0.5,14.1-0.7,21.2-0.9
			c7.5-0.1,15,0.6,22.5-0.4c2.1-0.3,5.2-1.2,6.1,2.6c0.2,0.7,1.1,0.5,1.7,0.6c3.1,0.7,6.6-1,9.4,1.7c0.7,0.7,1.5-0.3,1.9-1.1
			c1.8-3.3,3.2-3.6,5.8-1c1.8,1.8,3.4,2.4,5.4,0.3c2-2.2,3.6-1,5.5,0.3c-1.2,1.2-2.8,0.3-3.8,1.7c2.2,1,4,1.8,5.7-0.6
			c0.3-0.5,0.9-0.7,1.4-0.5c0.7,0.3,0.3,0.9,0.1,1.3c-0.5,1,0.3,2.1-0.5,3.1c-0.7,0.9-0.2,1.5,0.7,1.5c1.3,0,2.6,1.1,4,0.4
			c-1.4-3.7-1.4-3.7,0.9-4.9c1.9,2,4.6,2.5,6.7,4.2c3.8,3,3.4,7.1-1,9.3c-1.1,0.6-2.3,1.1-3.5,1.5c-2.7,0.9-4.3,2.6-4.6,5.5
			c-0.2,1.8-1.2,3.1-2.4,4.4c-6.5,6.8-14.2,10.9-23.8,11.1c-0.8,0-1.7,0.2-2.5,0.5c-7.5,3.2-15.4,3.3-23.4,2.9
			c-4.9-0.3-9.7-0.1-14.6-0.1c-1,0-2.3,0.2-2.5,1.5c-0.2,1.4,1,1.8,2,2.1c3.4,1.1,6.8,2.3,10.3,3.3c8.3,2.3,16.5,4.6,24.4,8.2
			c-9.5-2.3-18.6-6-28.1-8.4c-9.7-2.4-19.1-5.8-28.5-9c-1.8-0.6-3.8,0.7-5.2-0.5c-5.7-5-13.1-4.6-19.8-5.9
			c-6.2-1.2-12.3-2.6-18.2-4.8c-1.7-0.6-3.5-1.2-5.3-0.9c-3,0.5-5.9,0.9-8-2.1c-0.7-0.9-2-0.4-3-0.5c-1.6-0.1-3.9-0.4-4-1.9
			c-0.2-2.9-1.7-2-3.2-1.9c-3.6,0.3-7-0.4-10-2.4c-0.9-0.6-1.7-1.4-2.8-1.5c-5.8-0.5-11.2-2.6-16.8-4.1c-3.4-0.9-6.6-2.4-10.4-2.8
			c0.7,1.9,1.9,2.3,3.1,2.5c4.8,0.7,8.7,3.8,13.6,4.6c2.3,0.4,4.9,0.4,7.2,1.4c5.7,2.7,8.8,8.9,15.2,10.6c0.6,0.2,1,1,1.6,1.6
			c1,0.9,2.3,1.6,3.5,0.7c2.6-2,5-1.1,7.4,0.2c1.2,0.6,2.4,0.8,3.7,0.8c1.6,0,3.5-0.8,3.7,2.1c0,0.9,1.2,0.9,1.8,0.4
			c2.2-1.6,4.2-2.4,6.2,0.5c1.8,2.6,4.5-1.7,6.5,0.7c0.3,0.3,0.7,0.5,0.9,0.9c0.9,1,1.8,1.3,3.1,0.6c0.7-0.4,1.7-0.6,2.4-0.4
			c2.4,0.6,4.7,1.2,7.2,0.6c0.6-0.1,1.3,0,1.3,0.9c0.1,3.3,2.5,2.9,4.5,2.7c1.4-0.1,2.8-1,4-0.2c2.9,1.9,5.9,1,8.9,0.5
			c1.4-0.2,2.7-0.6,3.2,1.1c0.4,1.5-1,1.6-2,1.9c-0.7,0.3-1.4,0.6-1.2,1.6c0.2,0.7,0.8,0.9,1.5,0.9c0.6,0,1.3,0.1,1.9,0.2
			c0.7,0.2,1.6,0.3,1.7,1.2c0.1,1-0.9,1.1-1.5,1.4c-2.3,0.9-4.6,1.6-7.1,0.9c-1-0.3-2.3-0.9-2.6,0.6c-0.3,1.2,0.9,1.9,1.9,2.2
			c3.3,1,6.7,2.6,10.1,2.7c11.4,0.6,21.6,6,32.6,8c1,0.2,2.3,0.6,2.6,1.7c0.6,2.7,1.9,3.5,4.5,2.5c0.5-0.2,1.3,0.1,1.8,0.4
			c5.6,3.1,11.9,4.1,17.8,6.5c7,2.9,14.6,4.4,20.6,9.5c1.2,1,2.9,1.1,4.6,0.5c2-0.8,2.6-1.9,0.8-3.3c-2.7-2.1-2.5-4.4-1.1-7
			c1.8,1.3,2.9,3.1,3.7,5.1c1.8,4.1,0.7,6.5-3.8,7.4c-7.7,1.6-15.5,1.9-23.2,0.8c-12.8-1.8-25-6.1-36.7-11.4
			c-14.6-6.7-30.1-9.4-45.6-12.5c-1-0.2-2.5-0.7-2.9,0.5c-0.4,1.3,1.2,1.5,2.1,1.9c10.1,5.3,20.1,10.6,30.2,15.8
			c7.1,3.7,12.7,9.2,18.2,14.8c5.8,5.9,5.3,13.6,4.9,21c-0.1,2.5-2.1,3.6-4.7,2.8c-2.4-0.7-4.8-1.1-7.2-0.2
			c-11.7,4.5-24,6.3-36.5,6.5c-0.7,0-1.7-0.3-1.9,0.6c-0.2,0.8,0.6,1.3,1.1,1.8c2.4,2.4,4.9,4.7,7.1,7.3c5.2,6.1,8.4,13.2,10.7,20.8
			c1,3.4-0.2,4.4-3.6,3.3c-2.2-0.8-4-0.7-6,0.8c-1.1,0.9-2.6,1.5-4,1.9c-8.7,2.5-17.6,1.8-25.9-1.1c-16-5.5-30.1-14.7-43.5-24.9
			c-1.2-0.9-2.3-3.2-3.8-1.9c-1.3,1.1,0.4,2.9,1.2,4.2c8.4,15.3,15.8,31,23.2,46.8c3.8,8.2,3.6,16.7,0.7,25.2
			c-0.5,1.3-1.2,2.2-2.7,2.4c-3.4,0.3-7,0.6-9.6-2.1c-5.3-5.3-11.4-9.5-16.8-14.6c-5.3-5-8.8-11.4-13.9-16.6
			c-7.4-7.4-12.6-16.1-17.1-25.6c-3.6-7.6-8-14.8-12-22.1c-0.4-0.8-1-2-2.1-1.7c-1.3,0.4-1,1.8-0.9,2.7c0.3,5.2,1.2,10.3,1.5,15.6
			c0.7,11.7-6.2,22.3-18.6,23.6c-1.4,0.2-2.6,0.9-3.6,1.8c-2.1,1.9-3.9,1.5-5-1.1c-1.6-3.8-4.4-6.5-7.9-8.5
			c-6.2-3.5-10.8-8.6-13.2-15.3c-0.7-1.9-1.8-3.5-3.2-5.1c-6.2-6.9-9.4-15.1-9.8-24.3c-0.4-8.9-1-17.8,0.3-26.7
			c0.4-2.8-0.7-4.1-3.5-4.5c-2.7-0.4-5.4-1-8.1-1.9c-3.6-1.2-6.9-2.7-8.4-6.7c-1.5-4.3-1.6-4.2-5.2-1.5c-8,5.8-16,4.7-22.2-1.5
			c-4.1-4.1-8.1-8-13.2-10.8c-3.2-1.8-4.7-4.5-5-8c-0.1-1.1,0-2.4-1.2-2.7c-3.4-0.7-6.6-2.4-10.2-1.2c-9.4,3.3-18.8,6.8-28.5,9.1
			c-4.9,1.2-9.7,2.4-14.4,3.9c-6.5,2-13.2,4.2-20,3.4c-7.4-0.8-14.8-1.1-22.2-1.2c-1.3,0-2.5-0.5-3.6-1.1c-4.7-2.5-9.5-4.7-14-7.7
			c-2.2-1.5-4.3-3.2-7.1-3.5c-1.2-0.1-2.1-1.1-1.6-2.2c1.2-2.6,0.2-4.7-1-6.9c-0.6-1.1-0.6-2.5-0.1-4.3c0.4,2.4,1.1,2.9,2.2,0.9
			c0.7-1.2,1.3-2.5,1.4-3.9c0.1-0.8,0.5-1.9-0.6-2.2c-0.9-0.3-1.2,0.6-1.6,1.2c-0.2,0.3-0.2,0.9-1,0.7c1.6-4.1,4.6-6.8,7.9-9.3
			c0.6-0.5,1.6-0.9,1.3-2c-0.3-0.8-1.2-0.8-1.9-0.9c-6.2-0.4-12.1-2.5-18.2-3.3c-5.3-0.7-9.9-3.2-14-6.5c-5.3-4.3-6.4-9.2-3.1-14.1
			c1.4-2.1,3.2-4,5.4-5.3c10-6,20.4-10.3,32.5-9.4c7.3,0.5,14.2-2.3,21.4-2.9c0.8-0.1,1.9-0.2,2-1.2c0.1-0.9-0.9-1.1-1.5-1.5
			c-3-1.9-6-3.6-8.7-5.8c-4.1-3.5-7.2-7.5-10.3-11.9c-5.8-8.2-11.9-16-15.3-25.6c-1-2.9-0.2-3.9,2.2-5.1c6.4-3.3,13.2-4.3,20.3-4.1
			c4.9,0.1,9.5,1,14.1,2.3c1,0.3,2.3,0.9,2.9-0.2c0.5-1-0.8-1.6-1.4-2.2c-4.2-4.5-8-9.2-10.4-14.8c-4-9.2-8.4-18.4-11.5-28
			c-1.1-3.4-2.3-6.9-4.9-9.6c-1.5-1.6-2.5-3.4-3.3-5.4c-3.7-9.3-1.1-13.1,8.8-11.5c7.9,1.3,15.5,3.5,22.1,8.3
			c-4.9-2.3-10.1-3.9-15.2-5.7c-3.5-1.3-7.2-1.8-10.9-1.9c-1.9,0-3.5,0.4-4.4,2.3c2.9,1.1,5.7,1.6,8.3,3.7c4.2,3.6,8.8,7.1,13.8,9.6
			c8.5,4.2,16,9.7,23.3,15.7c0.8,0.7,1.6,2.1,2.5,1.6c2.4-1,3.4,0.6,4.9,1.8c1,0.9,2.3,1.5,3.5,2.2c0.8,0.4,1.6,0.3,1.4-0.8
			c-0.5-3.8,1.6-2.3,3.2-1.6c1.4,0.7,2.9,1.2,4,2.5c0.6,0.6,1.3,1.9,2.2,0.9c0.8-0.9-0.5-1.6-1.1-2.4c-0.2-0.2-0.4-0.5-0.7-0.7
			c-2-1.9-3.5-4.2-6-5.6c-2.3-1.2-1.6-4.6-3.8-5.9c0.9,0.4,1.8,0.7,2.6,1.2c9,5.7,17.2,12.4,25.3,19.2c3.7,3.1,8,5.2,12.1,7.8
			c-0.2-1-0.7-1.5-1.3-1.9c-12.6-10.5-24.4-22-36.4-33.2c-5.2-4.9-7.7-11.9-13.7-16.5c-5.9-4.5-9.9-11.1-14.2-17.3
			C60,18.9,56.7,9.5,53.4,0c11.3,0,22.5,0,33.8,0c0.4,1.4,1.4,2.4,2.6,3.2c-0.5,1.8,0.4,3,1.4,4.3c3.2,4.3,6,8.8,9.4,12.9
			c3.2,3.9,5.7,8.4,9.5,11.7c-2.4-4.9-6.7-8.6-8.9-13.7c5.1,3.7,7.6,9.6,11.4,14.3c3.4,4.3,5.9,9.1,8.5,14c2.8,5.2,6.8,9.7,9.6,15
			c1.1,2,2.6,3.8,4,5.7c0.4,0.6,0.9,1.5,1.7,1.1c1-0.5,0.4-1.5,0.1-2.2c-0.2-0.4-0.3-0.8-0.6-1.1c-5.4-8.1-7.7-17.6-11.6-26.4
			c-4.3-9.8-7.2-20.2-9.8-30.6c-0.7-2.6-1.5-5.3-0.6-8.1c41.9,0,83.7,0,125.6,0c-7.1,29.7-3.6,59,3.1,88.2c1.7-2.7,2.2-5.6,2.1-8.5
			c-0.1-2.5,0.2-4.4,2.9-5.2c1.3-0.4,1.9-1.5,1.9-2.7c-0.2-6.8,1.2-13.6,0.5-20.4c-0.3-2.6-0.3-5,0.7-7.5c0.9-2.2,0.9-4.6,0.3-6.9
			c-0.9-3.3-1-6.7-1.1-10.1c-0.2-3.1,1.7-6.1,0.4-9.1c-0.6-1.4-0.4-2.5,0-3.9c0.7-2.7,2.2-5.8-1.6-7.7c-1-0.5-0.8-1.7-0.2-2.6
			C249.2,2.4,250.1,1.2,251,0z M298.1,85.5c2.4-3.6,3.2-8,6.5-11.2c0.9-0.9,1.6-2.8,0.3-4.1c-1.3-1.2-2.5-0.2-3.6,0.7
			c-2,1.6-4.2,1.5-6.2,0.3c-2-1.3-1-3.3-0.4-5c1.8-5.5,4.6-10.7,6.9-16c2.1-4.9,4.8-9.6,6.1-14.8c0.4-1.5,2.2-3.2,1-4.3
			c-1.1-1-2.8,0.8-4.2,1.4c-3.4,1.5-7.2,3-8.5,6.7c-2.7,7.6-6.2,14.7-8.9,22.3c-2.9,8.1-4.9,16.6-8.3,24.6c2.4,0.3,4.6,0.6,7,0.3
			c3-0.3,4.3-1.7,4.2-4.7c0-0.7-0.3-1.5-0.3-2.2c0.1-2.1,0.6-3.7,3.3-2.5c0.7,0.3,1.4,0.4,2.2,0.1c0.8-0.3,1.6-1,2.2,0.1
			c0.4,0.7,0,1.5-0.5,2c-2.5,2.3-4.1,5.3-6.1,8c-0.4,0.6-1.7,1-1,2c0.6,0.9,1.7,0.8,2.6,0.6c1-0.2,1.7-0.9,2.1-1.8
			C295.2,86.6,296.5,85.9,298.1,85.5c0.5,3.9-2.1,6.5-4.1,9.4c-0.6,0.8-1.5,1.4-2.5,1.2c-1.4-0.4-0.4-1.4-0.3-2.1
			c0-0.6,0.1-1.1-0.5-1.4c-0.8-0.3-1.2,0.3-1.5,0.9c-0.8,1.5-1.6,3-3,4.1c-3.4,2.6-4.2,6.5-5.5,10.2c-0.6,1.7,0.3,2,1.9,1.7
			c2.2-0.5,4.4-0.7,6.6-1.2c2.5-0.6,3.3,0.9,3.5,2.9c0.1,0.9-0.3,1.9-0.6,2.8c-0.5,1.4-0.1,2.1,1.4,2.1c1.3,0,2.7,0,3.6-0.9
			c4.9-4.7,11.3-7.5,15.8-12.6c0.5-0.6,1.1-1.4,2.2-0.7c-0.2,2.5-1.4,4.6-3,6.5c-0.4,0.5-0.8,1.1-0.4,1.7c0.3,0.5,1,0.8,1.3,0.5
			c2.1-2.1,5-2.5,7.4-4.2c5.4-4,7.2-10.7,11.9-15.2c1.8-1.7,2.3-4.5,5.8-3.7c0.7,0.2,2.1-0.4,2.5-1.1c3.2-5,9.5-6.2,13-10.8
			c0.9-1.2,1.8-2.7,3.4-3.3c4.6-1.9,7.6-5.9,11.4-8.8c4.6-3.4,8.7-7.4,12.8-11.4c3.9-3.8,9.4-5,13.2-8.7c0.8-0.8,1.8-0.8,2.6-0.1
			c2,2,3.8,1.1,5.6-0.3c1-0.8,2-1.8,3.1-2.1c4.4-1.3,7.7-4.3,11.1-7.1c0.5-0.4,1.2-0.8,0.8-1.5c-0.4-0.7-1.1-0.5-1.7-0.2
			c-4.4,1.7-9,2.8-13,5.1c-15.7,8.8-31.7,17.1-45.6,28.9c-7,6-15.2,10.5-22.1,16.7c-1,0.9-2,1.6-3.4,0.9c-0.6-0.3-1.2-0.7-1.1-1.4
			c0.3-1.4,1.1-2.7,2.5-3c1.8-0.4,3-1.4,4.3-2.5c1.2-1,2.8-2,1.5-3.9c-1.2-1.9-2.1,0.1-3.2,0.4c-0.8,0.2-1.5,0.5-2-0.3
			c-0.6-0.9-0.1-1.7,0.7-2.1c2.1-0.8,3-2.5,4.2-4.2c2.2-3.1,4.6-6.2,7.2-8.8c3.3-3.3,5.8-7,8.6-10.5c1.2-1.5,1.7-2.9,0.6-4.7
			c-0.8-1.3-1.3-2.7-0.1-3.8c1.5-1.4,2.1-3,2.1-5.1c0-1.1,0.7-2.1,1.6-2.6c2.2-1.3,2.7-3.8,4-5.6c0.7-1,0.2-1.8-0.6-2.4
			c-1-0.8-1.8-0.5-2.4,0.4c-1.1,1.6-2.1,3.3-3.3,4.7c-2.6,2.9-3.3,7-6.2,9.5c-2.9,2.5-4.9,5.6-7,8.6c-4.8,7.1-10.5,13.6-15.4,20.6
			c-4.5,6.3-9.8,12-14.8,18c-1.1,1.3-2,2.7-3.9,3.3c-0.3-2,0.7-3,1.7-4c0.9-0.9,1.9-1.8,2.7-2.7c1.7-1.9,0-3.9,0.1-5.8
			c0-0.4-0.5-0.8-0.9-0.7c-1.8,0.4-2.5,1.9-2.9,3.4c-0.4,1.5-1.7,2.1-2.7,3C304.4,83.7,301.1,84.3,298.1,85.5z M337.6,251.7
			c-1.3-1.4-2.6-2.1-4.3-1.6c-0.8,0.2-2,0.7-2.4,0c-2.3-4.1-6.1-5.5-10.4-6c-0.1,0-0.2-0.1-0.3-0.2c-3.9-1.6-5.6-6.4-10.2-7
			c-1-0.1-2-1.8-0.9-2.8c2.4-2.3-0.3-2.8-1.2-2.9c-2.6-0.4-4.4-2-6.2-3.6c-2.1-1.8-4-3.8-6.1-5.5c-1.2-0.9-2.7-2.2-4.3-0.9
			c-1.7,1.4-0.9,3-0.2,4.6c1.2,2.8,4,5,3,8.6c-0.1,0.3,0.3,0.9,0.6,1.1c3.3,1.9,4.6,5.2,6.5,8.1c2.9,4.4,6.8,8.2,10.5,12.2
			c3.8,4.2,7.7,8.3,11.7,12.3c3.1,3.1,6.4,5.9,9.7,8.7c1.5,1.3,2.8,1.1,3-1.2c0.2-2.3,1.2-4.5,0.4-7c2.6,0.6,3.1,2.1,2.9,4.1
			c-0.3,2.6,0.6,4.5,2.9,5.9c1.1,0.6,2.1,1.5,3,2.3c0.9,0.8,1.6,1.7-0.2,2.2c-2.3,0.6-1.8,1.8-0.5,2.9c1,0.8,1.8,1.8,2.6,2.7
			c1.4,1.5,4.5,2.7,5.2,1.8c2.5-3.4,4.4-1.7,6.7-0.3c0.9,0.6,2.1,1.1,2.8-0.1c0.7-1.1-0.3-1.7-1.1-2.2c-1.1-0.7-2.1-1.6-0.3-2.5
			c2.3-1.2,1.3-2.4,0-3.4c-1.2-1-2.7-2.6-4-2.5c-5.2,0.3-8.4-2.6-11.8-5.9c-1.7-1.6-1.9-2.5-1-4.4c0.9-1.8,2.5-3.5,2-6.3
			c-1.6,2.2-3.1,1.3-4,0c-1.3-2,1.3-1.5,1.7-2.4c1.7-3,2.6-2.2,3.5,0.4c0.1,0.3,0.7,0.3,1.1,0.5c2.4,1,2.7,2.3,1.1,4.3
			c-2.8,3.5-1.7,6.5,2.7,7.5c1,0.2,1.9,0.3,2.2,1.4c1.2,4.1,5.8,3.7,8.3,6.1c0.2,0.2,0.9,0,1.2-0.2c2.8-1.8,4.3,0.1,5.7,2.1
			c0.8,1.2,1.5,2.1,3.1,2.4c5.3,0.9,10.8,1,15.7,4.1c1.8,1.2,3.6,2,4.3,4.3c0.5,1.8,2.1,3,4,2c3.7-2.1,6.7-0.8,9.6,1.6
			c2.2,1.9,4.7,1.7,7.2,0.9c0.9-0.3,1.7-0.9,1.9-2c0.2-1.2-0.7-1.7-1.5-2.2c-5.3-2.8-10.9-4.8-16.4-6.9c-1.3-0.5-2.8,0.9-4-0.3
			c-2.3-2.5-5.9-3-8.4-5.3c-1.1-1-2.4-1-3.9-0.7c-3.1,0.5-6.2-1-8.5-2.4c-3.8-2.2-7.2-5.4-10.1-9c-0.8-1-1.9-1.7-3.2-1.8
			c-1.8-0.2-3.2-1-3.7-3c-0.3-1.2-1.3-2-2.3-2.6c-5.2-2.8-9.1-8.7-16.4-6.9c0.3,1.3,1.5,1.7,2.2,2.6c0.5,0.7,0.7,1.4-0.1,1.9
			c-0.7,0.5-1.1-0.1-1.5-0.6c-0.8-1.2-2-1.8-3.3-2.4c-1.3-0.6-2.1-1.6-1.8-3c0.3-1.5,1.8-1.2,2.9-1.3
			C335.6,252.1,336.4,252.6,337.6,251.7z M204.2,116.4c-0.2-2.1-1.2-2.7-2.2-3.5c-2-1.5-3.6-3.6-3.1-6.2c0.6-2.9,0.2-5.7-1-8.1
			c-2.7-5.4-3.9-11.2-5.7-16.8c-1.6-5-4.6-9.4-5.6-14.8c-0.6-3.2-1.5-6.9-4.5-9.3c-0.7-0.5-1.3-1.3-2.2-0.7
			c-0.8,0.5-0.3,1.4-0.1,2.1c0.4,1.2,0.9,2.4,1.3,3.6c1.6,5.3-1.8,9.9-2.3,14.8c-0.1,0.9-0.9,1.7-2,1.8c-1,0-1.5-0.8-1.8-1.6
			c-0.9-2.3-2.2-4.4-2.1-7c0.1-3.1-3-3.5-4.6-5.2c-0.5-0.6-1.1,0.4-1,1c0.2,0.9,0.4,1.9,0.7,2.8c2.1,5.2,4.7,10.2,7,15.2
			c4.3,9.4,10.1,18.2,15.5,27c1.7,2.8,4.3,4.7,8.1,3.5C200.5,114.4,202.3,115,204.2,116.4z M276.9,45.6c-1.3,0.7-1.3,2.6-2.5,3.1
			c-4.1,1.7-3.5,4.9-3.1,8.2c0.3,2.6-4.4,9.2-6.9,9.7c-0.4,0.1-0.9,0-1.2-0.1c-3.3-1.4-5.5,0.6-5.8,3.1c-0.5,4.4-3.7,7.7-3.8,12.2
			c-0.1,2.1,0.4,4.2-0.3,6.3c-0.3,1-0.3,2.5,0.9,2.7c1.4,0.3,1.4-1.3,1.6-2.3c0.7-3.2,2.1-5.6,5.8-5.7c1.1-0.1,1.9-0.9,2.6-1.7
			c1.2-1.5,2.6-2.3,4.5-2.7c2.4-0.5,4.3-1.6,5.1-4.2c1-3.1,1.8-3.2,4.4-1.1c0.5,0.4,0.6,1.2,1.6,1.1c2.1-5.2,3.8-10.7,5.9-16
			c1.9-4.6,0-10.4,4.4-14.2c0.4-0.3,0.5-1-0.1-1.4c-0.6-0.4-1.3-0.1-1.8,0.3c-1.8,1.5-3.6,3-5.3,4.6
			C278.7,51.3,278.1,51.2,276.9,45.6z M173.4,199.8c0.2-3.9-0.5-4.8-4-4.3c-2.9,0.4-5.9,0.5-8.6,2.1c-1.6,0.9-4,0-5.2,2
			c-3.7-1.6-6.2,1.2-9.1,2.5c-2.1,0.9-3.9,2.5-6.5,1.9c-1.3-0.3-2.1,0.8-2.4,2.1c-0.3,1.2,0.5,2.1,1.5,2.5c0.9,0.4,1.8,0.7,2.7,0.7
			c2-0.1,3.6,0.4,5.3,1.5c3.3,2.1,7.6,1.9,10.1-0.3c1.3-1.2,2.6-1.6,4.5-1.7c2.6,0,6.3,0.8,5.8-4.3c-0.2-1.9,1.3-0.6,2.1-0.1
			c3.6,3,3.6,3,5.4-1.2c0.2-0.4,0.4-0.7,0.7-1c0.7-0.8,1.8-1.4,1-2.7C175.8,198.1,174.7,199.6,173.4,199.8z M307,157.3
			c2.2-0.8,4.4,0,6.4-0.6c6.2-1.8,12.3-3.9,18.5-5.5c5.7-1.5,11.1-3.9,16.8-5.9c9.9-3.4,19.6-7.4,29.3-11.1c1.5-0.6,2.9-1.3,4.3-2
			c0.6-0.3,1-0.9,0.7-1.6c-0.1-0.2-0.5-0.4-0.7-0.4c-4.3,0.5-9,0.9-12.3,3.6c-4.2,3.3-9.1,4.4-13.8,5c-4.4,0.6-8.4,1-12,3.8
			c-3.4,2.6-7.5,0.9-11.4,2.3c-6.2,2.2-12.7,4-18.9,6.2C310.9,152.1,308.4,154.1,307,157.3z M209.1,76.8c-0.4,2.9,0.3,5.9,0.9,9
			c0.4,2.2,1.4,3.2,3.9,3.2c3,0,6,0.7,8,3.2c1.1,1.4,2.1,1.9,3.7,1.5c1.6-0.4,1.9-1.8,2.3-3.1c0.8-2.8-1.9-4.5-2.2-6.6
			c-0.9-6.7-4.2-12.6-5.9-19c-0.2-0.6-0.2-1.4-1-1.4c-0.8,0-0.9,0.9-0.8,1.5c0.1,2,0.2,4,0.3,6c0.1,2.1-1.3,3.3-3,4.1
			c-1.4,0.6-2.7,0-3.7-1.2c-0.7-0.8-0.6-2.9-2.1-2.4c-1.4,0.5-0.5,2.3-0.6,3.5C208.9,75.6,209,76.1,209.1,76.8z M228,260.2
			c-0.4,1.9-0.3,3.4,0.2,4.8c0.3,1,0,3,1.6,2.4c1.8-0.6,5-0.8,4.8-3.3c-0.2-2.8,1.7-2.8,3.1-3.7c1.4-0.9,2.6-0.1,3.6,0.9
			c1,1,2,1.8,3.2,0.4c1.4-1.6,2.7-3.3,2.8-5.6c0.1-1,0.2-2.1-1-2.3c-2-0.4-3.4-1.5-4.9-2.7c-1.2-1-2.2,0-3.1,0.7
			c-0.7,0.6-0.8,1.2,0,1.9c0.5,0.4,1.6,0.7,0.8,1.6c-0.6,0.7-1.4,0.2-2.1-0.1c-2.1-0.9-3.5-2.4-3.5-4.8c0-0.8,1-2,0.7-2.3
			c-2-2.1-1.7-4.5-1.7-7c0-1-1.2-2.4-2.8-2c-1.8,0.4-2.1,1.8-2.2,3.4C227.3,248.5,227.2,254.6,228,260.2z M186.2,111.7
			c0.1-1.5-0.4-2.3-0.8-3.2c-2-4.8-4.6-9.3-7.2-13.8c-0.6-1.1-1.1-2.6-2.7-2.1c-1.4,0.5-1.8,2-2,3.4c-0.1,1.3,0.5,2.5,1.1,3.6
			c1,1.5,2,3,2.9,4.5c0.4,0.7,1.2,1.5,0.5,2.3c-0.6,0.8-1.4,0.2-2.1,0c-1.7-0.4-3-0.1-3.5,1.7c-0.4,1.7-1.2,1.5-2.1,0.4
			c-1-1.1-2-2.2-3.1-3.2c-0.3-0.3-0.8-0.4-1.1-0.4c-0.5,0.1-0.6,0.6-0.4,1c0.7,1.8,0.8,3.9,2.6,4.9c5.2,3.1,9.2,7.8,14.2,11.2
			c0.8,0.5,1.5,1.4,2.5,0.8c0.8-0.5,0.8-1.5,0.7-2.3C185.6,117.4,183.8,114.3,186.2,111.7z M20.8,176c4.3-0.2,8.4-2,12.8-1.7
			c3.8,0.3,7.5,2,11.2,2c8.3,0.1,16.6,2,24.8-0.2c4.7-1.3,9.8,0.6,14.3-2c0.7-0.4,2.3,0.1,2.3-1.1c0-1.4-1.5-1.5-2.6-1.8
			c-6.7-1.8-13.5-1.1-20.2-0.9c-10.8,0.3-21.3,3.5-32.3,2.9C27.6,173,24,174,20.8,176z M139.8,133.5c-0.7-0.2-1.6-0.4-1.6,0.7
			c0,0.9,0.7,1.3,1.6,1.1c1.3-0.2,3-0.7,3.3,0.8c0.8,3.4,4.3,4.2,5.9,6.8c0.8,1.2,2.8,2.1,4,0.2c0.9-1.5,1.7-1.8,2.9-0.6
			c1.4,1.4,0.9,2.3-0.7,3.1c-0.9,0.4-1.5,1.4-1.1,2.4c0.3,1,1.3,0.4,1.9,0.3c1.3-0.2,2.5,0.3,3.1,1.2c2.7,3.7,6.5,3.8,10.5,3.4
			c1.6-0.2,4,1,4.5-1.2c0.5-2.1-1.4-3.8-3-5.2c-0.5-0.5-1.4-0.5-2-0.9c-5.8-3.5-12.5-5.3-18.3-8.9
			C147.3,134.7,143.8,133.3,139.8,133.5z M230.1,91.1c0,0.3-0.1,1.4,0,2.4c0.2,1.4,1.2,2.5,2.4,1.6c1.9-1.5,4-2.3,6.1-3.2
			c1.2-0.6,1.7-2.2,1.3-3.3c-1.5-4.2-1.9-8.7-3.5-12.8c-0.6-1.6-2.4-3.2-3.9-3.1c-1.6,0.1-1.2,2.4-1.3,3.8
			C230.9,81,230.5,85.6,230.1,91.1z M206.2,78.8c0.9-3.6-3.1-5.3-3.4-8.5c-0.1-1-2.1-0.5-3.1,0c-1,0.5-2.2,1.1-1.6,2.3
			c2.3,4.8,1.9,10.3,4.3,15c1.3,2.5,1.9,2.8,4.2,1c2-1.6,1.1-3.5,0.8-5.3C207.1,81.8,205.8,80.5,206.2,78.8z M425.8,53.4
			c2.2-0.5,4.2-1.7,5.8-3.4c4.3-4.4,10.6-6.5,14.3-11.8c0.2-0.3,0.7-0.6,1-0.7c5.8-1.7,9-7,14.1-9.8c0.7-0.4,1.5-0.8,0.7-1.6
			c-0.6-0.7-1.1,0-1.6,0.3c-11.8,8.2-23.9,15.9-35.2,24.8c-0.5,0.4-1.2,0.7-0.9,1.4C424.2,53.4,424.9,53.4,425.8,53.4z M432.3,163.7
			c1.3-0.5,2.2-0.9,3.2-1.3c1.3-0.5,2.3-0.4,2.9,1c0.5,1.2,1.1,2.4,2.8,1.8c2.4-0.8,5.6,0.1,6.8-3.6c-0.7,0-1.1,0-1.5,0.1
			c-3.4,1-4.5,0.3-3.6-3c0.9-3-0.4-2.5-2.2-2c-1,0.3-2.1,0.3-3.1,0.5C434.3,157.8,431.8,159.3,432.3,163.7z M68.5,80.3
			c1,3,2.9,5.1,5,7c2.4,2.2,5.4,3.8,8.6,4.6c0.6,0.1,1.3,0.2,1.7-0.4c0.3-0.5,0-1.1-0.4-1.4C78.9,86.1,74,82.8,68.5,80.3z
			 M374.4,274.4c1.3-0.1,2.9,0.2,3.3-1.3c0.5-1.6-1.2-1.7-2.1-2.3c-2.5-1.4-4.9-2.8-7.4-4.3c-0.9-0.5-1.8-0.9-2.5,0
			c-0.6,0.8-0.4,1.6,0.1,2.3C368.1,271.8,370.7,274.1,374.4,274.4z M365.7,223.4c-0.9-0.3-1.8-0.1-2.1,0.8c-0.4,1,0.7,1.2,1.2,1.5
			c0.6,0.4,1.4,1,2,0.9c5.1-0.8,9.4,2.3,14.2,3c1,0.2,2.2,0.8,2.7-0.6c0.4-1.3-0.9-1.9-1.9-2C376.3,226.1,371.2,224,365.7,223.4z
			 M264.4,49.8c-0.3,4.2-0.6,8-1.5,11.8c-0.2,0.9,0.4,1.7,1.4,1.8c0.9,0.2,1.3-0.4,1.7-1.2C268.3,57.4,268.4,53.5,264.4,49.8z
			 M425.1,114.7c2.7,0.8,4.8-0.5,7.1-1.3c1.5-0.5,3.6-0.5,4-2.2c0.5-2-2.4-0.7-2.8-2.1c0-0.1-0.1-0.2-0.2-0.2
			c-1.4-1.5-2.5-1.1-3.6,0.4C428.2,111.1,427.1,113.2,425.1,114.7z M361.4,295c2,0.2,3.7-1.2,5.3,0c2,1.6,4.2,2.9,6.5,4.1
			c0.6,0.3,1.2,1.1,1.9,0.5c0.9-0.8,0-1.5-0.5-2.1c-1.5-1.7-3.2-3.1-5-4.3C365.5,290.6,364.9,290.7,361.4,295z M410.7,116
			c-1.7,0.2-3.4,1.6-5.4,2.6c-0.5,0.3-0.7,0.8-0.5,1.4c0.3,0.7,0.9,0.9,1.6,0.7c1.5-0.5,2.8-0.4,4.2,0.6c1.1,0.8,2.3,0.5,3.2-0.3
			c1.5-1.3-0.2-2.5-0.3-3.8C413.5,115.9,412.3,115.9,410.7,116z M395.5,232.7c0.4,0,0.8-0.1,1.3-0.1c1.1-0.2,2.7,0.4,2.8-1.3
			c0.1-1.7-1.4-1.8-2.7-2.1c-2.5-0.6-5,0.2-7.5-0.6c-0.4-0.1-0.9,0.1-0.9,0.6c0,0.4,0.2,0.9,0.4,1.1
			C390.9,231.4,392.7,233.3,395.5,232.7z M411.6,64.4c0.3-0.1,0.6-0.3,1-0.5c3.5-2.2,5.8-5.9,9.3-8c0.4-0.3,0.7-0.9,0.3-1.4
			c-0.6-0.6-1.2-0.2-1.7,0.2c-2.8,1.9-5.6,3.8-8.3,5.8c-0.9,0.6-1.6,1.5-1.8,2.5C410.2,63.8,410.4,64.5,411.6,64.4z M168.6,184.8
			c0-0.1,0-0.1,0-0.2c-1.6,0.1-3.2,0.1-4.7,0.4c-0.9,0.1-2.7-0.2-2.3,1.3c0.3,1.3,1.8,2.5,3.2,1.8c1.8-0.8,3.5-0.6,5.3-0.6
			c1.4,0,3.2-0.1,3-1.9c-0.2-1.8-2-0.9-3.2-1C169.4,184.7,169,184.7,168.6,184.8z"/>
		<path class="st0" d="M494.3,257.6c-1.4-1-2.9-1.8-4-3c-2.4-2.7-5.1-4.3-8.8-4.5c-1.1-0.1-2.3-0.5-1.8-1.9c0.4-1.2,1.5-0.9,2.5-0.6
			c3.8,1.1,7.3,2.8,10.7,4.9C494.6,253.6,494.4,255.5,494.3,257.6z"/>
		<path class="st0" d="M434.2,236.8c-4.9-1.9-9.7-2.1-14.2-3.6c-0.9-0.3-2.3-0.5-1.6-2.1c0.5-1.1,1.9-2.2,2.8-1.3
			c3,3.3,7.6,2.6,11.1,4.6C433,234.8,433.8,235.1,434.2,236.8z"/>
	</g>
</g>
</svg>
